<svg xmlns="http://www.w3.org/2000/svg" xmlns:xlink="http://www.w3.org/1999/xlink" width="864" height="605.04"><rect width="864" height="605.04" rx="5" ry="5" class="a"/><svg y="0%" x="0%"><circle cx="20" cy="20" r="6" fill="#ff5f58"/><circle cx="40" cy="20" r="6" fill="#ffbd2e"/><circle cx="60" cy="20" r="6" fill="#18c132"/></svg><svg height="521.04" viewBox="0 0 80 52.104" width="800" x="27" xmlns="http://www.w3.org/2000/svg" xmlns:xlink="http://www.w3.org/1999/xlink" y="62"><style>@keyframes i{0%{transform:translateX(0)}.06%{transform:translateX(-80px)}1.07%{transform:translateX(-160px)}1.1%{transform:translateX(-240px)}2.44%{transform:translateX(-480px)}7.07%{transform:translateX(-720px)}10.63%{transform:translateX(-800px)}18.57%{transform:translateX(-1040px)}22.18%{transform:translateX(-1120px)}26.36%{transform:translateX(-1360px)}29.92%{transform:translateX(-1440px)}35.46%{transform:translateX(-1680px)}39.03%{transform:translateX(-1760px)}44.81%{transform:translateX(-1920px)}48.38%{transform:translateX(-2000px)}55.01%{transform:translateX(-2240px)}58.58%{transform:translateX(-2320px)}64.81%{transform:translateX(-2560px)}68.37%{transform:translateX(-2640px)}74.44%{transform:translateX(-2880px)}78.01%{transform:translateX(-2960px)}83.21%{transform:translateX(-3200px)}86.78%{transform:translateX(-3280px)}91.65%{transform:translateX(-3440px)}95.21%{transform:translateX(-3520px)}99.99%{transform:translateX(-3680px)}}.a{fill:#282d35}.f,.g{fill:#b9c0cb;white-space:pre}.g{fill:#a8cc8c;font-weight:700}</style><g font-family="Monaco,Consolas,Menlo,'Bitstream Vera Sans Mono','Powerline Symbols',monospace" font-size="1.67"><defs><symbol id="1"><text y="1.67" class="f">spawn</text><text x="6.012" y="1.67" class="f">cargo</text><text x="12.024" y="1.67" class="f">run</text><text x="16.032" y="1.67" class="f">-p</text><text x="19.038" y="1.67" class="f">rh</text><text x="22.044" y="1.67" class="f">--</text><text x="25.05" y="1.67" class="f">fhirpath</text><text x="34.068" y="1.67" class="f">repl</text></symbol><symbol id="2"><text x="4.008" y="1.67" class="g">Finished</text><text x="13.026" y="1.67" class="f">`dev`</text><text x="19.038" y="1.67" class="f">profile</text><text x="27.054" y="1.67" class="f">[unoptimized</text><text x="40.08" y="1.67" class="f">+</text><text x="42.084" y="1.67" class="f">debuginfo]</text><text x="53.106" y="1.67" class="f">target(s)</text><text x="63.126" y="1.67" class="f">in</text><text x="66.132" y="1.67" class="f">0.29s</text></symbol><symbol id="3"><text x="5.01" y="1.67" class="g">Running</text><text x="13.026" y="1.67" class="f">`target/debug/rh</text><text x="30.06" y="1.67" class="f">fhirpath</text><text x="39.078" y="1.67" class="f">repl`</text></symbol><symbol id="4"><text y="1.67" class="f">🔍</text><text x="3.006" y="1.67" class="f">FHIRPath</text><text x="12.024" y="1.67" class="f">Interactive</text><text x="24.048" y="1.67" class="f">REPL</text></symbol><symbol id="5"><text y="1.67" class="f">Type</text><text x="5.01" y="1.67" class="f">FHIRPath</text><text x="14.028" y="1.67" class="f">expressions</text><text x="26.052" y="1.67" class="f">to</text><text x="29.058" y="1.67" class="f">evaluate</text><text x="38.076" y="1.67" class="f">them.</text></symbol><symbol id="6"><text y="1.67" class="f">Commands:</text><text x="10.02" y="1.67" class="f">.help,</text><text x="17.034" y="1.67" class="f">.data,</text><text x="24.048" y="1.67" class="f">.quit</text></symbol><symbol id="7"><text y="1.67" class="f">Use</text><text x="4.008" y="1.67" class="f">↑/↓</text><text x="8.016" y="1.67" class="f">arrow</text><text x="14.028" y="1.67" class="f">keys</text><text x="19.038" y="1.67" class="f">to</text><text x="22.044" y="1.67" class="f">navigate</text><text x="31.062" y="1.67" class="f">command</text><text x="39.078" y="1.67" class="f">history</text><text x="47.094" y="1.67" class="f">(persistent</text><text x="59.118" y="1.67" class="f">across</text><text x="66.132" y="1.67" class="f">sessions).</text></symbol><symbol id="8"><text y="1.67" class="f">fhirpath&gt;</text></symbol><symbol id="9"><text y="1.67" class="f">fhirpath&gt;</text><text x="10.02" y="1.67" class="f">.data</text></symbol><symbol id="10"><text y="1.67" class="f">No</text><text x="3.006" y="1.67" class="f">data</text><text x="8.016" y="1.67" class="f">loaded.</text><text x="16.032" y="1.67" class="f">Use</text><text x="20.04" y="1.67" class="f">.load</text><text x="26.052" y="1.67" class="f">&lt;file&gt;</text><text x="33.066" y="1.67" class="f">to</text><text x="36.072" y="1.67" class="f">load</text><text x="41.082" y="1.67" class="f">FHIR</text><text x="46.092" y="1.67" class="f">data.</text></symbol><symbol id="11"><text y="1.67" class="f">fhirpath&gt;</text><text x="10.02" y="1.67" class="f">.load</text><text x="16.032" y="1.67" class="f">examples/patient.json</text></symbol><symbol id="12"><text y="1.67" class="f">✅</text><text x="2.004" y="1.67" class="f">Loaded</text><text x="9.018" y="1.67" class="f">data</text><text x="14.028" y="1.67" class="f">from:</text><text x="20.04" y="1.67" class="f">examples/patient.json</text></symbol><symbol id="13"><text y="1.67" class="f">Data:</text><text x="6.012" y="1.67" class="f">{</text></symbol><symbol id="14"><text x="2.004" y="1.67" class="f">&quot;birthDate&quot;:</text><text x="15.03" y="1.67" class="f">&quot;1974-12-25&quot;,</text></symbol><symbol id="15"><text x="2.004" y="1.67" class="f">&quot;gender&quot;:</text><text x="12.024" y="1.67" class="f">&quot;male&quot;,</text></symbol><symbol id="16"><text x="2.004" y="1.67" class="f">&quot;id&quot;:</text><text x="8.016" y="1.67" class="f">&quot;example&quot;,</text></symbol><symbol id="17"><text x="2.004" y="1.67" class="f">&quot;name&quot;:</text><text x="10.02" y="1.67" class="f">[</text></symbol><symbol id="18"><text x="4.008" y="1.67" class="f">{</text></symbol><symbol id="19"><text x="6.012" y="1.67" class="f">&quot;family&quot;:</text><text x="16.032" y="1.67" class="f">&quot;Doe&quot;,</text></symbol><symbol id="20"><text x="6.012" y="1.67" class="f">&quot;given&quot;:</text><text x="15.03" y="1.67" class="f">[</text></symbol><symbol id="21"><text x="8.016" y="1.67" class="f">&quot;John&quot;</text></symbol><symbol id="22"><text x="6.012" y="1.67" class="f">],</text></symbol><symbol id="23"><text x="6.012" y="1.67" class="f">&quot;use&quot;:</text><text x="13.026" y="1.67" class="f">&quot;official&quot;</text></symbol><symbol id="24"><text x="4.008" y="1.67" class="f">}</text></symbol><symbol id="25"><text x="2.004" y="1.67" class="f">],</text></symbol><symbol id="26"><text x="2.004" y="1.67" class="f">&quot;resourceType&quot;:</text><text x="18.036" y="1.67" class="f">&quot;Patient&quot;,</text></symbol><symbol id="27"><text x="2.004" y="1.67" class="f">&quot;telecom&quot;:</text><text x="13.026" y="1.67" class="f">[</text></symbol><symbol id="28"><text x="6.012" y="1.67" class="f">&quot;system&quot;:</text><text x="16.032" y="1.67" class="f">&quot;email&quot;,</text></symbol><symbol id="29"><text x="6.012" y="1.67" class="f">&quot;value&quot;:</text><text x="15.03" y="1.67" class="f">&quot;john.doe@example.com&quot;</text></symbol><symbol id="30"><text x="2.004" y="1.67" class="f">]</text></symbol><symbol id="31"><text y="1.67" class="f">}</text></symbol><symbol id="32"><text y="1.67" class="f">fhirpath&gt;</text><text x="10.02" y="1.67" class="f">name.family</text></symbol><symbol id="33"><text y="1.67" class="f">=&gt;</text><text x="3.006" y="1.67" class="f">String(&quot;Doe&quot;)</text></symbol><symbol id="34"><text y="1.67" class="f">fhirpath&gt;</text><text x="10.02" y="1.67" class="f">&apos;hello&apos;.upper()</text></symbol><symbol id="35"><text y="1.67" class="f">=&gt;</text><text x="3.006" y="1.67" class="f">String(&quot;HELLO&quot;)</text></symbol><symbol id="36"><text y="1.67" class="f">fhirpath&gt;</text><text x="10.02" y="1.67" class="f">1.0&apos;kg&apos;</text><text x="18.036" y="1.67" class="f">-</text><text x="20.04" y="1.67" class="f">250.0&apos;g&apos;</text></symbol><symbol id="37"><text y="1.67" class="f">=&gt;</text><text x="3.006" y="1.67" class="f">Quantity</text><text x="12.024" y="1.67" class="f">{</text><text x="14.028" y="1.67" class="f">value:</text><text x="21.042" y="1.67" class="f">0.75,</text><text x="27.054" y="1.67" class="f">unit:</text><text x="33.066" y="1.67" class="f">Some(&quot;kg&quot;)</text><text x="44.088" y="1.67" class="f">}</text></symbol><symbol id="38"><text y="1.67" class="f">fhirpath&gt;</text><text x="10.02" y="1.67" class="f">2.5&apos;cm&apos;</text><text x="18.036" y="1.67" class="f">+</text><text x="20.04" y="1.67" class="f">10.0&apos;mm&apos;</text></symbol><symbol id="39"><text y="1.67" class="f">=&gt;</text><text x="3.006" y="1.67" class="f">Quantity</text><text x="12.024" y="1.67" class="f">{</text><text x="14.028" y="1.67" class="f">value:</text><text x="21.042" y="1.67" class="f">3.5000000000000004,</text><text x="41.082" y="1.67" class="f">unit:</text><text x="47.094" y="1.67" class="f">Some(&quot;cm&quot;)</text><text x="58.116" y="1.67" class="f">}</text></symbol><symbol id="40"><text y="1.67" class="f">fhirpath&gt;</text><text x="10.02" y="1.67" class="f">60.0&apos;mg&apos;</text><text x="19.038" y="1.67" class="f">+</text><text x="21.042" y="1.67" class="f">0.04&apos;g&apos;</text></symbol><symbol id="41"><text y="1.67" class="f">=&gt;</text><text x="3.006" y="1.67" class="f">Quantity</text><text x="12.024" y="1.67" class="f">{</text><text x="14.028" y="1.67" class="f">value:</text><text x="21.042" y="1.67" class="f">100.0,</text><text x="28.056" y="1.67" class="f">unit:</text><text x="34.068" y="1.67" class="f">Some(&quot;mg&quot;)</text><text x="45.09" y="1.67" class="f">}</text></symbol><symbol id="42"><text y="1.67" class="f">fhirpath&gt;</text><text x="10.02" y="1.67" class="f">1.0&apos;d&apos;</text><text x="17.034" y="1.67" class="f">+</text><text x="19.038" y="1.67" class="f">12.0&apos;h&apos;</text></symbol><symbol id="43"><text y="1.67" class="f">=&gt;</text><text x="3.006" y="1.67" class="f">Quantity</text><text x="12.024" y="1.67" class="f">{</text><text x="14.028" y="1.67" class="f">value:</text><text x="21.042" y="1.67" class="f">1.5,</text><text x="26.052" y="1.67" class="f">unit:</text><text x="32.064" y="1.67" class="f">Some(&quot;d&quot;)</text><text x="42.084" y="1.67" class="f">}</text></symbol><symbol id="44"><text y="1.67" class="f">fhirpath&gt;</text><text x="10.02" y="1.67" class="f">.help</text></symbol><symbol id="45"><text y="1.67" class="f">FHIRPath</text><text x="9.018" y="1.67" class="f">REPL</text><text x="14.028" y="1.67" class="f">Commands:</text></symbol><symbol id="46"><text x="2.004" y="1.67" class="f">.help</text><text x="23.046" y="1.67" class="f">Show</text><text x="28.056" y="1.67" class="f">this</text><text x="33.066" y="1.67" class="f">help</text></symbol><symbol id="47"><text x="2.004" y="1.67" class="f">.data</text><text x="23.046" y="1.67" class="f">Show</text><text x="28.056" y="1.67" class="f">currently</text><text x="38.076" y="1.67" class="f">loaded</text><text x="45.09" y="1.67" class="f">data</text></symbol><symbol id="48"><text x="2.004" y="1.67" class="f">.load</text><text x="8.016" y="1.67" class="f">&lt;file&gt;</text><text x="23.046" y="1.67" class="f">Load</text><text x="28.056" y="1.67" class="f">FHIR</text><text x="33.066" y="1.67" class="f">data</text><text x="38.076" y="1.67" class="f">from</text><text x="43.086" y="1.67" class="f">JSON</text><text x="48.096" y="1.67" class="f">file</text></symbol><symbol id="49"><text x="2.004" y="1.67" class="f">.quit,</text><text x="9.018" y="1.67" class="f">.exit</text><text x="23.046" y="1.67" class="f">Exit</text><text x="28.056" y="1.67" class="f">the</text><text x="32.064" y="1.67" class="f">REPL</text></symbol><symbol id="50"><text y="1.67" class="f">Navigation:</text></symbol><symbol id="51"><text x="2.004" y="1.67" class="f">↑/↓</text><text x="6.012" y="1.67" class="f">arrows</text><text x="23.046" y="1.67" class="f">Navigate</text><text x="32.064" y="1.67" class="f">command</text><text x="40.08" y="1.67" class="f">history</text></symbol><symbol id="52"><text x="2.004" y="1.67" class="f">Ctrl+C</text><text x="23.046" y="1.67" class="f">Interrupt</text><text x="33.066" y="1.67" class="f">current</text><text x="41.082" y="1.67" class="f">input</text></symbol><symbol id="53"><text x="2.004" y="1.67" class="f">Ctrl+D</text><text x="23.046" y="1.67" class="f">Exit</text><text x="28.056" y="1.67" class="f">REPL</text></symbol><symbol id="54"><text y="1.67" class="f">FHIRPath</text><text x="9.018" y="1.67" class="f">Examples:</text></symbol><symbol id="55"><text x="2.004" y="1.67" class="f">resourceType</text><text x="23.046" y="1.67" class="f">Get</text><text x="27.054" y="1.67" class="f">the</text><text x="31.062" y="1.67" class="f">resource</text><text x="40.08" y="1.67" class="f">type</text></symbol><symbol id="56"><text x="2.004" y="1.67" class="f">name.family</text><text x="23.046" y="1.67" class="f">Get</text><text x="27.054" y="1.67" class="f">family</text><text x="34.068" y="1.67" class="f">names</text></symbol><symbol id="57"><text x="2.004" y="1.67" class="f">name.where(use=&apos;official&apos;).given</text><text x="36.072" y="1.67" class="f">Get</text><text x="40.08" y="1.67" class="f">official</text><text x="49.098" y="1.67" class="f">given</text><text x="55.11" y="1.67" class="f">names</text></symbol><symbol id="58"><text x="2.004" y="1.67" class="f">telecom.where(system=&apos;email&apos;).value</text><text x="39.078" y="1.67" class="f">Get</text><text x="43.086" y="1.67" class="f">email</text><text x="49.098" y="1.67" class="f">addresses</text></symbol><symbol id="59"><text x="2.004" y="1.67" class="f">5</text><text x="4.008" y="1.67" class="f">+</text><text x="6.012" y="1.67" class="f">3</text><text x="8.016" y="1.67" class="f">*</text><text x="10.02" y="1.67" class="f">2</text><text x="23.046" y="1.67" class="f">Arithmetic</text><text x="34.068" y="1.67" class="f">operations</text></symbol><symbol id="60"><text x="2.004" y="1.67" class="f">&apos;hello&apos;.upper()</text><text x="23.046" y="1.67" class="f">String</text><text x="30.06" y="1.67" class="f">functions</text></symbol><symbol id="61"><text y="1.67" class="f">fhirpath&gt;</text><text x="10.02" y="1.67" class="f">.quit</text></symbol><symbol id="a"><path fill="transparent" d="M0 0h80v25H0z"/></symbol></defs><path class="a" d="M0 0h80v52.104H0z"/><g style="animation-duration:33.78s;animation-iteration-count:infinite;animation-name:i;animation-timing-function:steps(1,end)"><svg width="3760"><svg><use xlink:href="#a"/></svg><svg x="80"><use xlink:href="#a"/><use xlink:href="#1"/></svg><svg x="160"><use xlink:href="#a"/><use xlink:href="#1"/><use xlink:href="#2" y="2.171"/></svg><svg x="240"><use xlink:href="#a"/><use xlink:href="#1"/><use xlink:href="#2" y="2.171"/><use xlink:href="#3" y="4.342"/></svg><svg x="320"><use xlink:href="#a"/><use xlink:href="#1"/><use xlink:href="#2" y="2.171"/><use xlink:href="#3" y="4.342"/><use xlink:href="#4" y="6.513"/><use xlink:href="#5" y="8.684"/><use xlink:href="#6" y="10.855"/><use xlink:href="#7" y="13.026"/></svg><svg x="400"><use xlink:href="#a"/><use xlink:href="#1"/><use xlink:href="#2" y="2.171"/><use xlink:href="#3" y="4.342"/><use xlink:href="#4" y="6.513"/><use xlink:href="#5" y="8.684"/><use xlink:href="#6" y="10.855"/><use xlink:href="#7" y="13.026"/></svg><svg x="480"><use xlink:href="#a"/><use xlink:href="#1"/><use xlink:href="#2" y="2.171"/><use xlink:href="#3" y="4.342"/><use xlink:href="#4" y="6.513"/><use xlink:href="#5" y="8.684"/><use xlink:href="#6" y="10.855"/><use xlink:href="#7" y="13.026"/><use xlink:href="#8" y="17.368"/></svg><svg x="560"><use xlink:href="#a"/><use xlink:href="#1"/><use xlink:href="#2" y="2.171"/><use xlink:href="#3" y="4.342"/><use xlink:href="#4" y="6.513"/><use xlink:href="#5" y="8.684"/><use xlink:href="#6" y="10.855"/><use xlink:href="#7" y="13.026"/><use xlink:href="#9" y="17.368"/></svg><svg x="640"><use xlink:href="#a"/><use xlink:href="#1"/><use xlink:href="#2" y="2.171"/><use xlink:href="#3" y="4.342"/><use xlink:href="#4" y="6.513"/><use xlink:href="#5" y="8.684"/><use xlink:href="#6" y="10.855"/><use xlink:href="#7" y="13.026"/><use xlink:href="#9" y="17.368"/></svg><svg x="720"><use xlink:href="#a"/><use xlink:href="#1"/><use xlink:href="#2" y="2.171"/><use xlink:href="#3" y="4.342"/><use xlink:href="#4" y="6.513"/><use xlink:href="#5" y="8.684"/><use xlink:href="#6" y="10.855"/><use xlink:href="#7" y="13.026"/><use xlink:href="#9" y="17.368"/><use xlink:href="#10" y="19.539"/></svg><svg x="800"><use xlink:href="#a"/><use xlink:href="#1"/><use xlink:href="#2" y="2.171"/><use xlink:href="#3" y="4.342"/><use xlink:href="#4" y="6.513"/><use xlink:href="#5" y="8.684"/><use xlink:href="#6" y="10.855"/><use xlink:href="#7" y="13.026"/><use xlink:href="#9" y="17.368"/><use xlink:href="#10" y="19.539"/><use xlink:href="#8" y="21.71"/></svg><svg x="880"><use xlink:href="#a"/><use xlink:href="#1"/><use xlink:href="#2" y="2.171"/><use xlink:href="#3" y="4.342"/><use xlink:href="#4" y="6.513"/><use xlink:href="#5" y="8.684"/><use xlink:href="#6" y="10.855"/><use xlink:href="#7" y="13.026"/><use xlink:href="#9" y="17.368"/><use xlink:href="#10" y="19.539"/><use xlink:href="#11" y="21.71"/></svg><svg x="960"><use xlink:href="#a"/><use xlink:href="#1"/><use xlink:href="#2" y="2.171"/><use xlink:href="#3" y="4.342"/><use xlink:href="#4" y="6.513"/><use xlink:href="#5" y="8.684"/><use xlink:href="#6" y="10.855"/><use xlink:href="#7" y="13.026"/><use xlink:href="#9" y="17.368"/><use xlink:href="#10" y="19.539"/><use xlink:href="#11" y="21.71"/></svg><svg x="1040"><use xlink:href="#a"/><use xlink:href="#1"/><use xlink:href="#2" y="2.171"/><use xlink:href="#3" y="4.342"/><use xlink:href="#4" y="6.513"/><use xlink:href="#5" y="8.684"/><use xlink:href="#6" y="10.855"/><use xlink:href="#7" y="13.026"/><use xlink:href="#9" y="17.368"/><use xlink:href="#10" y="19.539"/><use xlink:href="#11" y="21.71"/><use xlink:href="#12" y="23.881"/></svg><svg x="1120"><use xlink:href="#a"/><use xlink:href="#1"/><use xlink:href="#2" y="2.171"/><use xlink:href="#3" y="4.342"/><use xlink:href="#4" y="6.513"/><use xlink:href="#5" y="8.684"/><use xlink:href="#6" y="10.855"/><use xlink:href="#7" y="13.026"/><use xlink:href="#9" y="17.368"/><use xlink:href="#10" y="19.539"/><use xlink:href="#11" y="21.71"/><use xlink:href="#12" y="23.881"/><use xlink:href="#8" y="26.052"/></svg><svg x="1200"><use xlink:href="#a"/><use xlink:href="#1"/><use xlink:href="#2" y="2.171"/><use xlink:href="#3" y="4.342"/><use xlink:href="#4" y="6.513"/><use xlink:href="#5" y="8.684"/><use xlink:href="#6" y="10.855"/><use xlink:href="#7" y="13.026"/><use xlink:href="#9" y="17.368"/><use xlink:href="#10" y="19.539"/><use xlink:href="#11" y="21.71"/><use xlink:href="#12" y="23.881"/><use xlink:href="#9" y="26.052"/></svg><svg x="1280"><use xlink:href="#a"/><use xlink:href="#1"/><use xlink:href="#2" y="2.171"/><use xlink:href="#3" y="4.342"/><use xlink:href="#4" y="6.513"/><use xlink:href="#5" y="8.684"/><use xlink:href="#6" y="10.855"/><use xlink:href="#7" y="13.026"/><use xlink:href="#9" y="17.368"/><use xlink:href="#10" y="19.539"/><use xlink:href="#11" y="21.71"/><use xlink:href="#12" y="23.881"/><use xlink:href="#9" y="26.052"/></svg><svg x="1360"><use xlink:href="#a"/><use xlink:href="#11"/><use xlink:href="#12" y="2.171"/><use xlink:href="#9" y="4.342"/><use xlink:href="#13" y="6.513"/><use xlink:href="#14" y="8.684"/><use xlink:href="#15" y="10.855"/><use xlink:href="#16" y="13.026"/><use xlink:href="#17" y="15.197"/><use xlink:href="#18" y="17.368"/><use xlink:href="#19" y="19.539"/><use xlink:href="#20" y="21.71"/><use xlink:href="#21" y="23.881"/><use xlink:href="#22" y="26.052"/><use xlink:href="#23" y="28.223"/><use xlink:href="#24" y="30.394"/><use xlink:href="#25" y="32.565"/><use xlink:href="#26" y="34.736"/><use xlink:href="#27" y="36.907"/><use xlink:href="#18" y="39.078"/><use xlink:href="#28" y="41.249"/><use xlink:href="#29" y="43.42"/><use xlink:href="#24" y="45.591"/><use xlink:href="#30" y="47.762"/><use xlink:href="#31" y="49.933"/></svg><svg x="1440"><use xlink:href="#a"/><use xlink:href="#11"/><use xlink:href="#12" y="2.171"/><use xlink:href="#9" y="4.342"/><use xlink:href="#13" y="6.513"/><use xlink:href="#14" y="8.684"/><use xlink:href="#15" y="10.855"/><use xlink:href="#16" y="13.026"/><use xlink:href="#17" y="15.197"/><use xlink:href="#18" y="17.368"/><use xlink:href="#19" y="19.539"/><use xlink:href="#20" y="21.71"/><use xlink:href="#21" y="23.881"/><use xlink:href="#22" y="26.052"/><use xlink:href="#23" y="28.223"/><use xlink:href="#24" y="30.394"/><use xlink:href="#25" y="32.565"/><use xlink:href="#26" y="34.736"/><use xlink:href="#27" y="36.907"/><use xlink:href="#18" y="39.078"/><use xlink:href="#28" y="41.249"/><use xlink:href="#29" y="43.42"/><use xlink:href="#24" y="45.591"/><use xlink:href="#30" y="47.762"/><use xlink:href="#31" y="49.933"/><use xlink:href="#8" y="52.104"/></svg><svg x="1520"><use xlink:href="#a"/><use xlink:href="#11"/><use xlink:href="#12" y="2.171"/><use xlink:href="#9" y="4.342"/><use xlink:href="#13" y="6.513"/><use xlink:href="#14" y="8.684"/><use xlink:href="#15" y="10.855"/><use xlink:href="#16" y="13.026"/><use xlink:href="#17" y="15.197"/><use xlink:href="#18" y="17.368"/><use xlink:href="#19" y="19.539"/><use xlink:href="#20" y="21.71"/><use xlink:href="#21" y="23.881"/><use xlink:href="#22" y="26.052"/><use xlink:href="#23" y="28.223"/><use xlink:href="#24" y="30.394"/><use xlink:href="#25" y="32.565"/><use xlink:href="#26" y="34.736"/><use xlink:href="#27" y="36.907"/><use xlink:href="#18" y="39.078"/><use xlink:href="#28" y="41.249"/><use xlink:href="#29" y="43.42"/><use xlink:href="#24" y="45.591"/><use xlink:href="#30" y="47.762"/><use xlink:href="#31" y="49.933"/><use xlink:href="#32" y="52.104"/></svg><svg x="1600"><use xlink:href="#a"/><use xlink:href="#12"/><use xlink:href="#9" y="2.171"/><use xlink:href="#13" y="4.342"/><use xlink:href="#14" y="6.513"/><use xlink:href="#15" y="8.684"/><use xlink:href="#16" y="10.855"/><use xlink:href="#17" y="13.026"/><use xlink:href="#18" y="15.197"/><use xlink:href="#19" y="17.368"/><use xlink:href="#20" y="19.539"/><use xlink:href="#21" y="21.71"/><use xlink:href="#22" y="23.881"/><use xlink:href="#23" y="26.052"/><use xlink:href="#24" y="28.223"/><use xlink:href="#25" y="30.394"/><use xlink:href="#26" y="32.565"/><use xlink:href="#27" y="34.736"/><use xlink:href="#18" y="36.907"/><use xlink:href="#28" y="39.078"/><use xlink:href="#29" y="41.249"/><use xlink:href="#24" y="43.42"/><use xlink:href="#30" y="45.591"/><use xlink:href="#31" y="47.762"/><use xlink:href="#32" y="49.933"/></svg><svg x="1680"><use xlink:href="#a"/><use xlink:href="#9"/><use xlink:href="#13" y="2.171"/><use xlink:href="#14" y="4.342"/><use xlink:href="#15" y="6.513"/><use xlink:href="#16" y="8.684"/><use xlink:href="#17" y="10.855"/><use xlink:href="#18" y="13.026"/><use xlink:href="#19" y="15.197"/><use xlink:href="#20" y="17.368"/><use xlink:href="#21" y="19.539"/><use xlink:href="#22" y="21.71"/><use xlink:href="#23" y="23.881"/><use xlink:href="#24" y="26.052"/><use xlink:href="#25" y="28.223"/><use xlink:href="#26" y="30.394"/><use xlink:href="#27" y="32.565"/><use xlink:href="#18" y="34.736"/><use xlink:href="#28" y="36.907"/><use xlink:href="#29" y="39.078"/><use xlink:href="#24" y="41.249"/><use xlink:href="#30" y="43.42"/><use xlink:href="#31" y="45.591"/><use xlink:href="#32" y="47.762"/><use xlink:href="#33" y="49.933"/></svg><svg x="1760"><use xlink:href="#a"/><use xlink:href="#9"/><use xlink:href="#13" y="2.171"/><use xlink:href="#14" y="4.342"/><use xlink:href="#15" y="6.513"/><use xlink:href="#16" y="8.684"/><use xlink:href="#17" y="10.855"/><use xlink:href="#18" y="13.026"/><use xlink:href="#19" y="15.197"/><use xlink:href="#20" y="17.368"/><use xlink:href="#21" y="19.539"/><use xlink:href="#22" y="21.71"/><use xlink:href="#23" y="23.881"/><use xlink:href="#24" y="26.052"/><use xlink:href="#25" y="28.223"/><use xlink:href="#26" y="30.394"/><use xlink:href="#27" y="32.565"/><use xlink:href="#18" y="34.736"/><use xlink:href="#28" y="36.907"/><use xlink:href="#29" y="39.078"/><use xlink:href="#24" y="41.249"/><use xlink:href="#30" y="43.42"/><use xlink:href="#31" y="45.591"/><use xlink:href="#32" y="47.762"/><use xlink:href="#33" y="49.933"/><use xlink:href="#8" y="52.104"/></svg><svg x="1840"><use xlink:href="#a"/><use xlink:href="#13"/><use xlink:href="#14" y="2.171"/><use xlink:href="#15" y="4.342"/><use xlink:href="#16" y="6.513"/><use xlink:href="#17" y="8.684"/><use xlink:href="#18" y="10.855"/><use xlink:href="#19" y="13.026"/><use xlink:href="#20" y="15.197"/><use xlink:href="#21" y="17.368"/><use xlink:href="#22" y="19.539"/><use xlink:href="#23" y="21.71"/><use xlink:href="#24" y="23.881"/><use xlink:href="#25" y="26.052"/><use xlink:href="#26" y="28.223"/><use xlink:href="#27" y="30.394"/><use xlink:href="#18" y="32.565"/><use xlink:href="#28" y="34.736"/><use xlink:href="#29" y="36.907"/><use xlink:href="#24" y="39.078"/><use xlink:href="#30" y="41.249"/><use xlink:href="#31" y="43.42"/><use xlink:href="#32" y="45.591"/><use xlink:href="#33" y="47.762"/><use xlink:href="#34" y="49.933"/></svg><svg x="1920"><use xlink:href="#a"/><use xlink:href="#14"/><use xlink:href="#15" y="2.171"/><use xlink:href="#16" y="4.342"/><use xlink:href="#17" y="6.513"/><use xlink:href="#18" y="8.684"/><use xlink:href="#19" y="10.855"/><use xlink:href="#20" y="13.026"/><use xlink:href="#21" y="15.197"/><use xlink:href="#22" y="17.368"/><use xlink:href="#23" y="19.539"/><use xlink:href="#24" y="21.71"/><use xlink:href="#25" y="23.881"/><use xlink:href="#26" y="26.052"/><use xlink:href="#27" y="28.223"/><use xlink:href="#18" y="30.394"/><use xlink:href="#28" y="32.565"/><use xlink:href="#29" y="34.736"/><use xlink:href="#24" y="36.907"/><use xlink:href="#30" y="39.078"/><use xlink:href="#31" y="41.249"/><use xlink:href="#32" y="43.42"/><use xlink:href="#33" y="45.591"/><use xlink:href="#34" y="47.762"/><use xlink:href="#35" y="49.933"/></svg><svg x="2000"><use xlink:href="#a"/><use xlink:href="#14"/><use xlink:href="#15" y="2.171"/><use xlink:href="#16" y="4.342"/><use xlink:href="#17" y="6.513"/><use xlink:href="#18" y="8.684"/><use xlink:href="#19" y="10.855"/><use xlink:href="#20" y="13.026"/><use xlink:href="#21" y="15.197"/><use xlink:href="#22" y="17.368"/><use xlink:href="#23" y="19.539"/><use xlink:href="#24" y="21.71"/><use xlink:href="#25" y="23.881"/><use xlink:href="#26" y="26.052"/><use xlink:href="#27" y="28.223"/><use xlink:href="#18" y="30.394"/><use xlink:href="#28" y="32.565"/><use xlink:href="#29" y="34.736"/><use xlink:href="#24" y="36.907"/><use xlink:href="#30" y="39.078"/><use xlink:href="#31" y="41.249"/><use xlink:href="#32" y="43.42"/><use xlink:href="#33" y="45.591"/><use xlink:href="#34" y="47.762"/><use xlink:href="#35" y="49.933"/><use xlink:href="#8" y="52.104"/></svg><svg x="2080"><use xlink:href="#a"/><use xlink:href="#14"/><use xlink:href="#15" y="2.171"/><use xlink:href="#16" y="4.342"/><use xlink:href="#17" y="6.513"/><use xlink:href="#18" y="8.684"/><use xlink:href="#19" y="10.855"/><use xlink:href="#20" y="13.026"/><use xlink:href="#21" y="15.197"/><use xlink:href="#22" y="17.368"/><use xlink:href="#23" y="19.539"/><use xlink:href="#24" y="21.71"/><use xlink:href="#25" y="23.881"/><use xlink:href="#26" y="26.052"/><use xlink:href="#27" y="28.223"/><use xlink:href="#18" y="30.394"/><use xlink:href="#28" y="32.565"/><use xlink:href="#29" y="34.736"/><use xlink:href="#24" y="36.907"/><use xlink:href="#30" y="39.078"/><use xlink:href="#31" y="41.249"/><use xlink:href="#32" y="43.42"/><use xlink:href="#33" y="45.591"/><use xlink:href="#34" y="47.762"/><use xlink:href="#35" y="49.933"/><use xlink:href="#36" y="52.104"/></svg><svg x="2160"><use xlink:href="#a"/><use xlink:href="#15"/><use xlink:href="#16" y="2.171"/><use xlink:href="#17" y="4.342"/><use xlink:href="#18" y="6.513"/><use xlink:href="#19" y="8.684"/><use xlink:href="#20" y="10.855"/><use xlink:href="#21" y="13.026"/><use xlink:href="#22" y="15.197"/><use xlink:href="#23" y="17.368"/><use xlink:href="#24" y="19.539"/><use xlink:href="#25" y="21.71"/><use xlink:href="#26" y="23.881"/><use xlink:href="#27" y="26.052"/><use xlink:href="#18" y="28.223"/><use xlink:href="#28" y="30.394"/><use xlink:href="#29" y="32.565"/><use xlink:href="#24" y="34.736"/><use xlink:href="#30" y="36.907"/><use xlink:href="#31" y="39.078"/><use xlink:href="#32" y="41.249"/><use xlink:href="#33" y="43.42"/><use xlink:href="#34" y="45.591"/><use xlink:href="#35" y="47.762"/><use xlink:href="#36" y="49.933"/></svg><svg x="2240"><use xlink:href="#a"/><use xlink:href="#16"/><use xlink:href="#17" y="2.171"/><use xlink:href="#18" y="4.342"/><use xlink:href="#19" y="6.513"/><use xlink:href="#20" y="8.684"/><use xlink:href="#21" y="10.855"/><use xlink:href="#22" y="13.026"/><use xlink:href="#23" y="15.197"/><use xlink:href="#24" y="17.368"/><use xlink:href="#25" y="19.539"/><use xlink:href="#26" y="21.71"/><use xlink:href="#27" y="23.881"/><use xlink:href="#18" y="26.052"/><use xlink:href="#28" y="28.223"/><use xlink:href="#29" y="30.394"/><use xlink:href="#24" y="32.565"/><use xlink:href="#30" y="34.736"/><use xlink:href="#31" y="36.907"/><use xlink:href="#32" y="39.078"/><use xlink:href="#33" y="41.249"/><use xlink:href="#34" y="43.42"/><use xlink:href="#35" y="45.591"/><use xlink:href="#36" y="47.762"/><use xlink:href="#37" y="49.933"/></svg><svg x="2320"><use xlink:href="#a"/><use xlink:href="#16"/><use xlink:href="#17" y="2.171"/><use xlink:href="#18" y="4.342"/><use xlink:href="#19" y="6.513"/><use xlink:href="#20" y="8.684"/><use xlink:href="#21" y="10.855"/><use xlink:href="#22" y="13.026"/><use xlink:href="#23" y="15.197"/><use xlink:href="#24" y="17.368"/><use xlink:href="#25" y="19.539"/><use xlink:href="#26" y="21.71"/><use xlink:href="#27" y="23.881"/><use xlink:href="#18" y="26.052"/><use xlink:href="#28" y="28.223"/><use xlink:href="#29" y="30.394"/><use xlink:href="#24" y="32.565"/><use xlink:href="#30" y="34.736"/><use xlink:href="#31" y="36.907"/><use xlink:href="#32" y="39.078"/><use xlink:href="#33" y="41.249"/><use xlink:href="#34" y="43.42"/><use xlink:href="#35" y="45.591"/><use xlink:href="#36" y="47.762"/><use xlink:href="#37" y="49.933"/><use xlink:href="#8" y="52.104"/></svg><svg x="2400"><use xlink:href="#a"/><use xlink:href="#16"/><use xlink:href="#17" y="2.171"/><use xlink:href="#18" y="4.342"/><use xlink:href="#19" y="6.513"/><use xlink:href="#20" y="8.684"/><use xlink:href="#21" y="10.855"/><use xlink:href="#22" y="13.026"/><use xlink:href="#23" y="15.197"/><use xlink:href="#24" y="17.368"/><use xlink:href="#25" y="19.539"/><use xlink:href="#26" y="21.71"/><use xlink:href="#27" y="23.881"/><use xlink:href="#18" y="26.052"/><use xlink:href="#28" y="28.223"/><use xlink:href="#29" y="30.394"/><use xlink:href="#24" y="32.565"/><use xlink:href="#30" y="34.736"/><use xlink:href="#31" y="36.907"/><use xlink:href="#32" y="39.078"/><use xlink:href="#33" y="41.249"/><use xlink:href="#34" y="43.42"/><use xlink:href="#35" y="45.591"/><use xlink:href="#36" y="47.762"/><use xlink:href="#37" y="49.933"/><use xlink:href="#38" y="52.104"/></svg><svg x="2480"><use xlink:href="#a"/><use xlink:href="#17"/><use xlink:href="#18" y="2.171"/><use xlink:href="#19" y="4.342"/><use xlink:href="#20" y="6.513"/><use xlink:href="#21" y="8.684"/><use xlink:href="#22" y="10.855"/><use xlink:href="#23" y="13.026"/><use xlink:href="#24" y="15.197"/><use xlink:href="#25" y="17.368"/><use xlink:href="#26" y="19.539"/><use xlink:href="#27" y="21.71"/><use xlink:href="#18" y="23.881"/><use xlink:href="#28" y="26.052"/><use xlink:href="#29" y="28.223"/><use xlink:href="#24" y="30.394"/><use xlink:href="#30" y="32.565"/><use xlink:href="#31" y="34.736"/><use xlink:href="#32" y="36.907"/><use xlink:href="#33" y="39.078"/><use xlink:href="#34" y="41.249"/><use xlink:href="#35" y="43.42"/><use xlink:href="#36" y="45.591"/><use xlink:href="#37" y="47.762"/><use xlink:href="#38" y="49.933"/></svg><svg x="2560"><use xlink:href="#a"/><use xlink:href="#18"/><use xlink:href="#19" y="2.171"/><use xlink:href="#20" y="4.342"/><use xlink:href="#21" y="6.513"/><use xlink:href="#22" y="8.684"/><use xlink:href="#23" y="10.855"/><use xlink:href="#24" y="13.026"/><use xlink:href="#25" y="15.197"/><use xlink:href="#26" y="17.368"/><use xlink:href="#27" y="19.539"/><use xlink:href="#18" y="21.71"/><use xlink:href="#28" y="23.881"/><use xlink:href="#29" y="26.052"/><use xlink:href="#24" y="28.223"/><use xlink:href="#30" y="30.394"/><use xlink:href="#31" y="32.565"/><use xlink:href="#32" y="34.736"/><use xlink:href="#33" y="36.907"/><use xlink:href="#34" y="39.078"/><use xlink:href="#35" y="41.249"/><use xlink:href="#36" y="43.42"/><use xlink:href="#37" y="45.591"/><use xlink:href="#38" y="47.762"/><use xlink:href="#39" y="49.933"/></svg><svg x="2640"><use xlink:href="#a"/><use xlink:href="#18"/><use xlink:href="#19" y="2.171"/><use xlink:href="#20" y="4.342"/><use xlink:href="#21" y="6.513"/><use xlink:href="#22" y="8.684"/><use xlink:href="#23" y="10.855"/><use xlink:href="#24" y="13.026"/><use xlink:href="#25" y="15.197"/><use xlink:href="#26" y="17.368"/><use xlink:href="#27" y="19.539"/><use xlink:href="#18" y="21.71"/><use xlink:href="#28" y="23.881"/><use xlink:href="#29" y="26.052"/><use xlink:href="#24" y="28.223"/><use xlink:href="#30" y="30.394"/><use xlink:href="#31" y="32.565"/><use xlink:href="#32" y="34.736"/><use xlink:href="#33" y="36.907"/><use xlink:href="#34" y="39.078"/><use xlink:href="#35" y="41.249"/><use xlink:href="#36" y="43.42"/><use xlink:href="#37" y="45.591"/><use xlink:href="#38" y="47.762"/><use xlink:href="#39" y="49.933"/><use xlink:href="#8" y="52.104"/></svg><svg x="2720"><use xlink:href="#a"/><use xlink:href="#18"/><use xlink:href="#19" y="2.171"/><use xlink:href="#20" y="4.342"/><use xlink:href="#21" y="6.513"/><use xlink:href="#22" y="8.684"/><use xlink:href="#23" y="10.855"/><use xlink:href="#24" y="13.026"/><use xlink:href="#25" y="15.197"/><use xlink:href="#26" y="17.368"/><use xlink:href="#27" y="19.539"/><use xlink:href="#18" y="21.71"/><use xlink:href="#28" y="23.881"/><use xlink:href="#29" y="26.052"/><use xlink:href="#24" y="28.223"/><use xlink:href="#30" y="30.394"/><use xlink:href="#31" y="32.565"/><use xlink:href="#32" y="34.736"/><use xlink:href="#33" y="36.907"/><use xlink:href="#34" y="39.078"/><use xlink:href="#35" y="41.249"/><use xlink:href="#36" y="43.42"/><use xlink:href="#37" y="45.591"/><use xlink:href="#38" y="47.762"/><use xlink:href="#39" y="49.933"/><use xlink:href="#40" y="52.104"/></svg><svg x="2800"><use xlink:href="#a"/><use xlink:href="#19"/><use xlink:href="#20" y="2.171"/><use xlink:href="#21" y="4.342"/><use xlink:href="#22" y="6.513"/><use xlink:href="#23" y="8.684"/><use xlink:href="#24" y="10.855"/><use xlink:href="#25" y="13.026"/><use xlink:href="#26" y="15.197"/><use xlink:href="#27" y="17.368"/><use xlink:href="#18" y="19.539"/><use xlink:href="#28" y="21.71"/><use xlink:href="#29" y="23.881"/><use xlink:href="#24" y="26.052"/><use xlink:href="#30" y="28.223"/><use xlink:href="#31" y="30.394"/><use xlink:href="#32" y="32.565"/><use xlink:href="#33" y="34.736"/><use xlink:href="#34" y="36.907"/><use xlink:href="#35" y="39.078"/><use xlink:href="#36" y="41.249"/><use xlink:href="#37" y="43.42"/><use xlink:href="#38" y="45.591"/><use xlink:href="#39" y="47.762"/><use xlink:href="#40" y="49.933"/></svg><svg x="2880"><use xlink:href="#a"/><use xlink:href="#20"/><use xlink:href="#21" y="2.171"/><use xlink:href="#22" y="4.342"/><use xlink:href="#23" y="6.513"/><use xlink:href="#24" y="8.684"/><use xlink:href="#25" y="10.855"/><use xlink:href="#26" y="13.026"/><use xlink:href="#27" y="15.197"/><use xlink:href="#18" y="17.368"/><use xlink:href="#28" y="19.539"/><use xlink:href="#29" y="21.71"/><use xlink:href="#24" y="23.881"/><use xlink:href="#30" y="26.052"/><use xlink:href="#31" y="28.223"/><use xlink:href="#32" y="30.394"/><use xlink:href="#33" y="32.565"/><use xlink:href="#34" y="34.736"/><use xlink:href="#35" y="36.907"/><use xlink:href="#36" y="39.078"/><use xlink:href="#37" y="41.249"/><use xlink:href="#38" y="43.42"/><use xlink:href="#39" y="45.591"/><use xlink:href="#40" y="47.762"/><use xlink:href="#41" y="49.933"/></svg><svg x="2960"><use xlink:href="#a"/><use xlink:href="#20"/><use xlink:href="#21" y="2.171"/><use xlink:href="#22" y="4.342"/><use xlink:href="#23" y="6.513"/><use xlink:href="#24" y="8.684"/><use xlink:href="#25" y="10.855"/><use xlink:href="#26" y="13.026"/><use xlink:href="#27" y="15.197"/><use xlink:href="#18" y="17.368"/><use xlink:href="#28" y="19.539"/><use xlink:href="#29" y="21.71"/><use xlink:href="#24" y="23.881"/><use xlink:href="#30" y="26.052"/><use xlink:href="#31" y="28.223"/><use xlink:href="#32" y="30.394"/><use xlink:href="#33" y="32.565"/><use xlink:href="#34" y="34.736"/><use xlink:href="#35" y="36.907"/><use xlink:href="#36" y="39.078"/><use xlink:href="#37" y="41.249"/><use xlink:href="#38" y="43.42"/><use xlink:href="#39" y="45.591"/><use xlink:href="#40" y="47.762"/><use xlink:href="#41" y="49.933"/><use xlink:href="#8" y="52.104"/></svg><svg x="3040"><use xlink:href="#a"/><use xlink:href="#20"/><use xlink:href="#21" y="2.171"/><use xlink:href="#22" y="4.342"/><use xlink:href="#23" y="6.513"/><use xlink:href="#24" y="8.684"/><use xlink:href="#25" y="10.855"/><use xlink:href="#26" y="13.026"/><use xlink:href="#27" y="15.197"/><use xlink:href="#18" y="17.368"/><use xlink:href="#28" y="19.539"/><use xlink:href="#29" y="21.71"/><use xlink:href="#24" y="23.881"/><use xlink:href="#30" y="26.052"/><use xlink:href="#31" y="28.223"/><use xlink:href="#32" y="30.394"/><use xlink:href="#33" y="32.565"/><use xlink:href="#34" y="34.736"/><use xlink:href="#35" y="36.907"/><use xlink:href="#36" y="39.078"/><use xlink:href="#37" y="41.249"/><use xlink:href="#38" y="43.42"/><use xlink:href="#39" y="45.591"/><use xlink:href="#40" y="47.762"/><use xlink:href="#41" y="49.933"/><use xlink:href="#42" y="52.104"/></svg><svg x="3120"><use xlink:href="#a"/><use xlink:href="#21"/><use xlink:href="#22" y="2.171"/><use xlink:href="#23" y="4.342"/><use xlink:href="#24" y="6.513"/><use xlink:href="#25" y="8.684"/><use xlink:href="#26" y="10.855"/><use xlink:href="#27" y="13.026"/><use xlink:href="#18" y="15.197"/><use xlink:href="#28" y="17.368"/><use xlink:href="#29" y="19.539"/><use xlink:href="#24" y="21.71"/><use xlink:href="#30" y="23.881"/><use xlink:href="#31" y="26.052"/><use xlink:href="#32" y="28.223"/><use xlink:href="#33" y="30.394"/><use xlink:href="#34" y="32.565"/><use xlink:href="#35" y="34.736"/><use xlink:href="#36" y="36.907"/><use xlink:href="#37" y="39.078"/><use xlink:href="#38" y="41.249"/><use xlink:href="#39" y="43.42"/><use xlink:href="#40" y="45.591"/><use xlink:href="#41" y="47.762"/><use xlink:href="#42" y="49.933"/></svg><svg x="3200"><use xlink:href="#a"/><use xlink:href="#22"/><use xlink:href="#23" y="2.171"/><use xlink:href="#24" y="4.342"/><use xlink:href="#25" y="6.513"/><use xlink:href="#26" y="8.684"/><use xlink:href="#27" y="10.855"/><use xlink:href="#18" y="13.026"/><use xlink:href="#28" y="15.197"/><use xlink:href="#29" y="17.368"/><use xlink:href="#24" y="19.539"/><use xlink:href="#30" y="21.71"/><use xlink:href="#31" y="23.881"/><use xlink:href="#32" y="26.052"/><use xlink:href="#33" y="28.223"/><use xlink:href="#34" y="30.394"/><use xlink:href="#35" y="32.565"/><use xlink:href="#36" y="34.736"/><use xlink:href="#37" y="36.907"/><use xlink:href="#38" y="39.078"/><use xlink:href="#39" y="41.249"/><use xlink:href="#40" y="43.42"/><use xlink:href="#41" y="45.591"/><use xlink:href="#42" y="47.762"/><use xlink:href="#43" y="49.933"/></svg><svg x="3280"><use xlink:href="#a"/><use xlink:href="#22"/><use xlink:href="#23" y="2.171"/><use xlink:href="#24" y="4.342"/><use xlink:href="#25" y="6.513"/><use xlink:href="#26" y="8.684"/><use xlink:href="#27" y="10.855"/><use xlink:href="#18" y="13.026"/><use xlink:href="#28" y="15.197"/><use xlink:href="#29" y="17.368"/><use xlink:href="#24" y="19.539"/><use xlink:href="#30" y="21.71"/><use xlink:href="#31" y="23.881"/><use xlink:href="#32" y="26.052"/><use xlink:href="#33" y="28.223"/><use xlink:href="#34" y="30.394"/><use xlink:href="#35" y="32.565"/><use xlink:href="#36" y="34.736"/><use xlink:href="#37" y="36.907"/><use xlink:href="#38" y="39.078"/><use xlink:href="#39" y="41.249"/><use xlink:href="#40" y="43.42"/><use xlink:href="#41" y="45.591"/><use xlink:href="#42" y="47.762"/><use xlink:href="#43" y="49.933"/><use xlink:href="#8" y="52.104"/></svg><svg x="3360"><use xlink:href="#a"/><use xlink:href="#22"/><use xlink:href="#23" y="2.171"/><use xlink:href="#24" y="4.342"/><use xlink:href="#25" y="6.513"/><use xlink:href="#26" y="8.684"/><use xlink:href="#27" y="10.855"/><use xlink:href="#18" y="13.026"/><use xlink:href="#28" y="15.197"/><use xlink:href="#29" y="17.368"/><use xlink:href="#24" y="19.539"/><use xlink:href="#30" y="21.71"/><use xlink:href="#31" y="23.881"/><use xlink:href="#32" y="26.052"/><use xlink:href="#33" y="28.223"/><use xlink:href="#34" y="30.394"/><use xlink:href="#35" y="32.565"/><use xlink:href="#36" y="34.736"/><use xlink:href="#37" y="36.907"/><use xlink:href="#38" y="39.078"/><use xlink:href="#39" y="41.249"/><use xlink:href="#40" y="43.42"/><use xlink:href="#41" y="45.591"/><use xlink:href="#42" y="47.762"/><use xlink:href="#43" y="49.933"/><use xlink:href="#44" y="52.104"/></svg><svg x="3440"><use xlink:href="#a"/><use xlink:href="#40"/><use xlink:href="#41" y="2.171"/><use xlink:href="#42" y="4.342"/><use xlink:href="#43" y="6.513"/><use xlink:href="#44" y="8.684"/><use xlink:href="#45" y="10.855"/><use xlink:href="#46" y="13.026"/><use xlink:href="#47" y="15.197"/><use xlink:href="#48" y="17.368"/><use xlink:href="#49" y="19.539"/><use xlink:href="#50" y="23.881"/><use xlink:href="#51" y="26.052"/><use xlink:href="#52" y="28.223"/><use xlink:href="#53" y="30.394"/><use xlink:href="#54" y="34.736"/><use xlink:href="#55" y="36.907"/><use xlink:href="#56" y="39.078"/><use xlink:href="#57" y="41.249"/><use xlink:href="#58" y="43.42"/><use xlink:href="#59" y="45.591"/><use xlink:href="#60" y="47.762"/></svg><svg x="3520"><use xlink:href="#a"/><use xlink:href="#40"/><use xlink:href="#41" y="2.171"/><use xlink:href="#42" y="4.342"/><use xlink:href="#43" y="6.513"/><use xlink:href="#44" y="8.684"/><use xlink:href="#45" y="10.855"/><use xlink:href="#46" y="13.026"/><use xlink:href="#47" y="15.197"/><use xlink:href="#48" y="17.368"/><use xlink:href="#49" y="19.539"/><use xlink:href="#50" y="23.881"/><use xlink:href="#51" y="26.052"/><use xlink:href="#52" y="28.223"/><use xlink:href="#53" y="30.394"/><use xlink:href="#54" y="34.736"/><use xlink:href="#55" y="36.907"/><use xlink:href="#56" y="39.078"/><use xlink:href="#57" y="41.249"/><use xlink:href="#58" y="43.42"/><use xlink:href="#59" y="45.591"/><use xlink:href="#60" y="47.762"/><use xlink:href="#8" y="52.104"/></svg><svg x="3600"><use xlink:href="#a"/><use xlink:href="#40"/><use xlink:href="#41" y="2.171"/><use xlink:href="#42" y="4.342"/><use xlink:href="#43" y="6.513"/><use xlink:href="#44" y="8.684"/><use xlink:href="#45" y="10.855"/><use xlink:href="#46" y="13.026"/><use xlink:href="#47" y="15.197"/><use xlink:href="#48" y="17.368"/><use xlink:href="#49" y="19.539"/><use xlink:href="#50" y="23.881"/><use xlink:href="#51" y="26.052"/><use xlink:href="#52" y="28.223"/><use xlink:href="#53" y="30.394"/><use xlink:href="#54" y="34.736"/><use xlink:href="#55" y="36.907"/><use xlink:href="#56" y="39.078"/><use xlink:href="#57" y="41.249"/><use xlink:href="#58" y="43.42"/><use xlink:href="#59" y="45.591"/><use xlink:href="#60" y="47.762"/><use xlink:href="#61" y="52.104"/></svg><svg x="3680"><use xlink:href="#a"/><use xlink:href="#42"/><use xlink:href="#43" y="2.171"/><use xlink:href="#44" y="4.342"/><use xlink:href="#45" y="6.513"/><use xlink:href="#46" y="8.684"/><use xlink:href="#47" y="10.855"/><use xlink:href="#48" y="13.026"/><use xlink:href="#49" y="15.197"/><use xlink:href="#50" y="19.539"/><use xlink:href="#51" y="21.71"/><use xlink:href="#52" y="23.881"/><use xlink:href="#53" y="26.052"/><use xlink:href="#54" y="30.394"/><use xlink:href="#55" y="32.565"/><use xlink:href="#56" y="34.736"/><use xlink:href="#57" y="36.907"/><use xlink:href="#58" y="39.078"/><use xlink:href="#59" y="41.249"/><use xlink:href="#60" y="43.42"/><use xlink:href="#61" y="47.762"/><text y="51.603" class="f">Goodbye!</text></svg></svg></g></g></svg></svg>