<?xml version="1.0" encoding="UTF-8" standalone="no"?>
<svg
   id="Layer_2"
   viewBox="0 0 685.868 96.8157"
   version="1.1"
   sodipodi:docname="rust-health-logo-full-color-rgb.svg"
   inkscape:version="1.4 (e7c3feb1, 2024-10-09)"
   xmlns:inkscape="http://www.inkscape.org/namespaces/inkscape"
   xmlns:sodipodi="http://sodipodi.sourceforge.net/DTD/sodipodi-0.dtd"
   xmlns="http://www.w3.org/2000/svg"
   xmlns:svg="http://www.w3.org/2000/svg">
  <defs
     id="defs11" />
  <sodipodi:namedview
     id="namedview11"
     pagecolor="#ffffff"
     bordercolor="#000000"
     borderopacity="0.25"
     inkscape:showpageshadow="2"
     inkscape:pageopacity="0.0"
     inkscape:pagecheckerboard="0"
     inkscape:deskcolor="#d1d1d1"
     showgrid="true"
     inkscape:zoom="1.3533384"
     inkscape:cx="285.2206"
     inkscape:cy="69.827323"
     inkscape:window-width="1896"
     inkscape:window-height="1110"
     inkscape:window-x="0"
     inkscape:window-y="25"
     inkscape:window-maximized="0"
     inkscape:current-layer="e4d8023d-661e-4f29-837e-924ab28f4f46_1">
    <inkscape:grid
       id="grid11"
       units="px"
       originx="0"
       originy="0"
       spacingx="1.3"
       spacingy="1.2999999"
       empcolor="#0099e5"
       empopacity="0.30196078"
       color="#0099e5"
       opacity="0.14901961"
       empspacing="5"
       enabled="true"
       visible="false"
       dotted="false" />
    <inkscape:grid
       type="modular"
       id="grid12"
       units="px"
       originx="0"
       originy="0"
       spacingx="151.18111"
       spacingy="151.18111"
       empcolor="#0047cb"
       empopacity="0.30196078"
       color="#0099e5"
       opacity="0.14901961"
       empspacing="0"
       marginx="0"
       marginy="0"
       gapx="37.795277"
       gapy="37.795277"
       enabled="false"
       visible="true" />
    <inkscape:grid
       id="grid13"
       units="px"
       originx="0"
       originy="0"
       spacingx="1"
       spacingy="1"
       empcolor="#0099e5"
       empopacity="0.30196078"
       color="#0099e5"
       opacity="0.14901961"
       empspacing="5"
       enabled="false"
       visible="true" />
    <inkscape:grid
       type="modular"
       id="grid14"
       units="px"
       originx="0"
       originy="0"
       spacingx="151.18111"
       spacingy="151.18111"
       empcolor="#0047cb"
       empopacity="0.30196078"
       color="#0099e5"
       opacity="0.14901961"
       empspacing="0"
       marginx="0"
       marginy="0"
       gapx="37.795277"
       gapy="37.795277"
       enabled="false"
       visible="true" />
    <inkscape:grid
       id="grid15"
       units="px"
       originx="0"
       originy="0"
       spacingx="1"
       spacingy="1"
       empcolor="#0099e5"
       empopacity="0.30196078"
       color="#0099e5"
       opacity="0.14901961"
       empspacing="5"
       enabled="false"
       visible="true" />
    <inkscape:grid
       id="grid16"
       units="px"
       originx="0"
       originy="0"
       spacingx="1"
       spacingy="1"
       empcolor="#0099e5"
       empopacity="0.30196078"
       color="#0099e5"
       opacity="0.14901961"
       empspacing="5"
       enabled="false"
       visible="true" />
  </sodipodi:namedview>
  <g
     id="Components">
    <g
       id="e4d8023d-661e-4f29-837e-924ab28f4f46_1">
      <path
         d="M 24.725105,33.622101 H 51.284137 V 44.815069 H 17.501056 c -1.377878,0 -2.489773,1.118218 -2.489773,2.492063 V 97.073596 H 3.1674203 V 55.017579 c 0,-12.939516 8.4754737,-21.395478 21.5685847,-21.395478 z"
         style="fill:#072928;stroke-width:1.0901"
         id="path3" />
      <g
         id="g11"
         transform="matrix(1.0900934,0,0,1.0900934,222.12723,4.3248084)">
        <path
           d="m -131.80921,85.056564 h 24.364 v -10.2679 h -30.991 c -1.264,0 -2.284,-1.0258 -2.284,-2.2861 V 26.849165 h -10.865 v 38.580199 c 0,11.8701 7.775,19.6272 19.786,19.6272 z"
           style="fill:#072928"
           id="path3-0" />
        <path
           d="m -109.24712,85.047863 h -24.364 v -10.2679 h 30.991 c 1.264,0 2.284,-1.0258 2.284,-2.2861 V 26.840464 h 10.864996 v 38.580199 c 0,11.8701 -7.774996,19.6272 -19.785996,19.6272 z"
           style="fill:#072928"
           id="path3-0-4" />
      </g>
      <path
         d="m 247.48597,31.244758 h 26.55904 v 11.192968 h -33.78308 c -1.37787,0 -2.48977,1.118218 -2.48977,2.492062 v 49.766465 h -11.84387 l -0.50323,-54.007875 c -0.10062,-10.799191 -0.0795,-9.44362 22.07181,-9.44362 z"
         style="fill:#072928;stroke-width:1.0901"
         id="path3-3"
         sodipodi:nodetypes="cccssccscc" />
      <path
         d="m 216.07833,31.191628 h -26.55904 v 11.192966 h 33.78308 c 1.37788,0 2.48978,1.118217 2.48978,2.492061 V 94.643119 H 237.636 l 0.50324,-54.007875 c 0.10061,-10.79919 0.0795,-9.443616 -22.07182,-9.443616 z"
         style="fill:#072928;stroke-width:1.0901"
         id="path3-3-8"
         sodipodi:nodetypes="cccssccscc" />
      <g
         id="g16"
         transform="matrix(1.0900934,0,0,1.0900934,-7.49731,11.493488)">
        <path
           d="m 544.79247,19.964464 h 24.364 v 6.639388 H 534.6205 c -1.264,0 -1.31139,1.270491 -1.31719,2.530778 l -0.22569,49.037234 h -6.41183 l 0.14493,-49.544269 c 0.029,-9.907055 -2.32889,-8.663131 17.99175,-8.663131 z"
           style="fill:#072928"
           id="path3-3-9"
           sodipodi:nodetypes="cccssccscc" />
        <path
           d="m 515.00194,20.060996 h -24.364 v 6.639388 h 34.53597 c 1.264,0 1.31139,1.270491 1.31719,2.530778 l 0.22569,49.037234 h 6.41183 l -0.14493,-49.544269 c -0.029,-9.907055 2.32889,-8.663131 -17.99175,-8.663131 z"
           style="fill:#072928"
           id="path3-3-9-7"
           sodipodi:nodetypes="cccssccscc" />
      </g>
      <path
         d="M 359.53067,76.178238 V 45.85638 c 0,-12.939516 -0.0623,-12.969545 13.03199,-12.969545 h 37.18124 c 13.0942,0 13.75128,0.220349 13.75128,13.159866 v 19.181181 l -56.85255,0.249565 0.12477,18.421912 c 0.0457,6.739142 0.37156,6.69981 6.74327,6.734651 l 22.82155,0.124781 c 2.48974,0.01363 3.61259,-0.254187 5.85818,-1.500163 L 423.38834,76.31122 v 8.820369 l -14.95826,9.20465 c -5.10599,2.864765 -9.22655,3.237467 -13.9619,3.237467 h -21.57292 c -13.0942,0 -13.28331,-0.220437 -13.33298,-13.159856 z M 416.13256,58.510225 V 46.561182 c 0,-5.117303 -0.99812,-8.024447 -6.98192,-8.048009 l -35.27653,-0.138899 c -7.49315,-0.02951 -7.0513,6.813435 -7.08324,8.186908 l -0.27778,11.949043 z"
         style="fill:#072928;stroke-width:1.0901"
         id="path4"
         sodipodi:nodetypes="cssssccsssccccsssccsssscc" />
      <path
         d="m 481.42339,40.569193 -41.02022,-0.220455 v -6.342983 h 35.66893 c 12.96666,0 21.5686,8.455963 21.5686,21.395477 v 42.056016 h -6.99388 V 86.184801 l -16.64328,8.279052 c -5.10707,2.864764 -9.22764,3.610281 -13.96299,3.610281 h -4.79576 c -11.3457,0 -20.31826,-7.71045 -20.31826,-19.904559 v -0.371832 c 0,-11.576354 8.60193,-19.659504 21.56859,-19.659504 h 34.26193 l 0.11023,-10.447455 c 0.033,-3.137084 -5.24305,-7.099015 -9.44389,-7.121591 z M 449.24928,91.2474 h 11.71631 c 3.20424,0 12.99106,-3.493502 14.24632,-4.748751 l 15.64445,-7.709419 -0.11022,-14.442835 -41.48705,0.330681 c -1.37675,0.01098 -6.81017,3.716266 -6.78455,6.901141 l 0.1073,13.326868 c 0.0156,1.939796 1.84908,6.412384 6.67732,6.412384 l -0.34049,0.03709 z"
         style="fill:#072928;stroke-width:1.0901"
         id="path5"
         sodipodi:nodetypes="sccssccccssssscsscscccsssccc" />
      <path
         d="m 188.97983,75.771451 c 0,-7.167255 -5.12779,-15.229148 -12.62764,-17.369764 -1.67329,-0.479314 -3.46431,-0.734832 -5.35017,-0.734832 H 142.1952 c -1.68419,0 -2.91273,-1.128901 -2.91273,-2.907387 v -9.233853 c 0,-1.778489 1.21764,-2.907388 2.91273,-2.907388 h 43.63753 V 31.467879 h -39.5573 c -1.88586,0 -3.6758,0.255519 -5.35018,0.745406 -7.51074,2.140617 -12.62654,8.786152 -12.62654,17.103673 v 2.449876 c 0,7.167363 5.1267,14.164235 12.62654,16.304852 1.67438,0.479205 3.46432,0.734832 5.35018,0.734832 h 28.8068 c 1.68419,0 2.91382,1.1289 2.91382,2.907388 v 8.988474 c 0,1.778486 -1.21873,2.907387 -2.91382,2.907387 h -45.74576 v 11.29947 h 41.66555 c 1.88586,0 3.67688,-0.415434 5.35017,-0.905322 7.49985,-2.140616 12.62764,-8.786043 12.62764,-17.103563 z"
         style="fill:#072928;stroke-width:1.0901"
         id="path8" />
      <path
         d="m 319.68911,40.124821 c -3.48394,0 -4.55986,-0.116968 -8.2967,1.946579 l -18.52396,10.541529 v 44.414106 h -7.21968 V 12.174284 h 7.21968 V 45.10306 l 14.90376,-8.488448 c 4.82367,-2.786933 8.42315,-3.393352 12.99283,-3.393352 h 7.69497 c 9.98416,0 17.44693,7.754597 17.44693,18.061973 v 45.754486 h -7.21968 V 46.071062 c 0,-3.393351 -2.52248,-5.946241 -5.89959,-5.946241 z"
         style="fill:#072928;stroke-width:1.0901"
         id="path9" />
      <path
         d="m 656.43237,39.778558 c -3.48393,0 -4.55987,-0.116966 -8.29671,1.94658 l -18.52394,10.541529 v 44.414106 h -7.21969 V 11.828021 h 7.21969 v 32.928775 l 14.90375,-8.488447 c 4.82367,-2.786933 8.42316,-3.393351 12.99282,-3.393351 h 7.69498 c 9.98414,0 17.44693,7.754597 17.44693,18.061973 v 45.754485 h -7.21969 V 45.724799 c 0,-3.393352 -2.52247,-5.946241 -5.89958,-5.946241 z"
         style="fill:#072928;stroke-width:1.0901"
         id="path9-7" />
      <path
         d="m 519.54003,53.016262 v 44.414111 h -7.21968 V 12.577617 h 7.21968 v 32.928775 z"
         style="fill:#072928;stroke-width:1.0901"
         id="path9-7-3"
         sodipodi:nodetypes="ccccccc" />
    </g>
  </g>
</svg>
