<?xml version="1.0" encoding="UTF-8" standalone="no"?>
<svg
   id="Layer_2"
   viewBox="0 0 685.868 96.8157"
   version="1.1"
   sodipodi:docname="rust-health-logo-full-color-rgb.svg"
   inkscape:version="1.4 (e7c3feb1, 2024-10-09)"
   xmlns:inkscape="http://www.inkscape.org/namespaces/inkscape"
   xmlns:sodipodi="http://sodipodi.sourceforge.net/DTD/sodipodi-0.dtd"
   xmlns="http://www.w3.org/2000/svg"
   xmlns:svg="http://www.w3.org/2000/svg">
  <defs
     id="defs11" />
  <sodipodi:namedview
     id="namedview11"
     pagecolor="#ffffff"
     bordercolor="#000000"
     borderopacity="0.25"
     inkscape:showpageshadow="2"
     inkscape:pageopacity="0.0"
     inkscape:pagecheckerboard="0"
     inkscape:deskcolor="#d1d1d1"
     showgrid="true"
     inkscape:zoom="1.1093904"
     inkscape:cx="219.9406"
     inkscape:cy="-41.013514"
     inkscape:window-width="1896"
     inkscape:window-height="1110"
     inkscape:window-x="0"
     inkscape:window-y="25"
     inkscape:window-maximized="0"
     inkscape:current-layer="e4d8023d-661e-4f29-837e-924ab28f4f46_1">
    <inkscape:grid
       id="grid11"
       units="px"
       originx="0"
       originy="0"
       spacingx="1.3"
       spacingy="1.2999999"
       empcolor="#0099e5"
       empopacity="0.30196078"
       color="#0099e5"
       opacity="0.14901961"
       empspacing="5"
       enabled="true"
       visible="false"
       dotted="false" />
    <inkscape:grid
       type="modular"
       id="grid12"
       units="px"
       originx="0"
       originy="0"
       spacingx="151.18111"
       spacingy="151.18111"
       empcolor="#0047cb"
       empopacity="0.30196078"
       color="#0099e5"
       opacity="0.14901961"
       empspacing="0"
       marginx="0"
       marginy="0"
       gapx="37.795277"
       gapy="37.795277"
       enabled="false"
       visible="true" />
    <inkscape:grid
       id="grid13"
       units="px"
       originx="0"
       originy="0"
       spacingx="1"
       spacingy="1"
       empcolor="#0099e5"
       empopacity="0.30196078"
       color="#0099e5"
       opacity="0.14901961"
       empspacing="5"
       enabled="false"
       visible="true" />
    <inkscape:grid
       type="modular"
       id="grid14"
       units="px"
       originx="0"
       originy="0"
       spacingx="151.18111"
       spacingy="151.18111"
       empcolor="#0047cb"
       empopacity="0.30196078"
       color="#0099e5"
       opacity="0.14901961"
       empspacing="0"
       marginx="0"
       marginy="0"
       gapx="37.795277"
       gapy="37.795277"
       enabled="false"
       visible="true" />
    <inkscape:grid
       id="grid15"
       units="px"
       originx="0"
       originy="0"
       spacingx="1"
       spacingy="1"
       empcolor="#0099e5"
       empopacity="0.30196078"
       color="#0099e5"
       opacity="0.14901961"
       empspacing="5"
       enabled="false"
       visible="true" />
    <inkscape:grid
       id="grid16"
       units="px"
       originx="0"
       originy="0"
       spacingx="1"
       spacingy="1"
       empcolor="#0099e5"
       empopacity="0.30196078"
       color="#0099e5"
       opacity="0.14901961"
       empspacing="5"
       enabled="false"
       visible="true" />
  </sodipodi:namedview>
  <g
     id="Components">
    <g
       id="e4d8023d-661e-4f29-837e-924ab28f4f46_1">
      <path
         d="M 28.902525,26.946686 H 58.170684 V 39.281381 H 20.941595 c -1.518427,0 -2.743741,1.232281 -2.743741,2.746264 V 96.87049 H 5.1458716 V 50.524588 c 0,-14.259398 9.3400054,-23.577902 23.7686654,-23.577902 z"
         style="fill:#072928;stroke-width:1.20129"
         id="path3" />
      <g
         id="g11"
         transform="matrix(1.2012872,0,0,1.2012872,246.44045,-5.3390477)">
        <path
           d="m -131.80921,85.056564 h 24.364 v -10.2679 h -30.991 c -1.264,0 -2.284,-1.0258 -2.284,-2.2861 V 26.849165 h -10.865 v 38.580199 c 0,11.8701 7.775,19.6272 19.786,19.6272 z"
           style="fill:#072928"
           id="path3-0" />
        <path
           d="m -109.24712,85.047863 h -24.364 v -10.2679 h 30.991 c 1.264,0 2.284,-1.0258 2.284,-2.2861 V 26.840464 h 10.864996 v 38.580199 c 0,11.8701 -7.774996,19.6272 -19.785996,19.6272 z"
           style="fill:#072928"
           id="path3-0-4" />
      </g>
      <path
         d="M 237.2988,26.937336 H 214.07479 V 39.27203 h 29.54093 c 1.20486,0 2.17713,1.232279 2.17713,2.746261 v 54.842838 h 10.35663 l 0.44004,-59.51689 c 0.0879,-11.900751 0.0696,-10.406903 -19.30026,-10.406903 z"
         style="fill:#072928;stroke-width:1.07009"
         id="path3-3-8"
         sodipodi:nodetypes="cccssccscc" />
      <path
         d="m 264.61853,26.94978 h 23.22402 v 12.334694 h -29.54094 c -1.20485,0 -2.17713,1.232279 -2.17713,2.746261 v 54.842846 h -10.35662 l -0.44005,-59.516898 c -0.0879,-11.900751 -0.0696,-10.406903 19.30026,-10.406903 z"
         style="fill:#072928;stroke-width:1.07009"
         id="path3-3-8-1"
         sodipodi:nodetypes="cccssccscc" />
      <path
         d="m 588.3367,26.634814 h 23.36225 v 7.975813 h -33.116 c -1.21204,0 -1.25748,1.526225 -1.26304,3.040192 l -0.21641,58.907808 h -6.14821 l 0.13898,-59.516904 c 0.0278,-11.901218 -2.23315,-10.406909 17.25201,-10.406909 z"
         style="fill:#072928;stroke-width:1.07326"
         id="path3-3-9"
         sodipodi:nodetypes="cccssccscc" />
      <path
         d="m 559.771,26.62014 h -23.36227 v 7.975813 h 33.11602 c 1.21203,0 1.25747,1.526224 1.26304,3.040192 l 0.21641,58.907803 h 6.1482 L 577.01343,37.027049 C 576.98563,25.12583 579.24657,26.62014 559.76142,26.62014 Z"
         style="fill:#072928;stroke-width:1.07326"
         id="path3-3-9-7"
         sodipodi:nodetypes="cccssccscc" />
      <path
         d="M 368.15718,73.843719 V 40.42891 c 0,-14.259398 -0.0687,-14.292491 14.36131,-14.292491 h 40.97387 c 14.42986,0 15.15397,0.242826 15.15397,14.502226 v 21.137737 l -62.65174,0.275022 0.1375,20.30102 c 0.0503,7.426561 0.40946,7.383218 7.43111,7.421613 l 25.14944,0.137509 c 2.7437,0.01502 3.98108,-0.280115 6.45573,-1.653185 l 23.36022,-14.268096 v 9.720082 l -16.48407,10.14356 c -5.62681,3.156987 -10.16769,3.567698 -15.38607,3.567698 h -23.77344 c -14.42986,0 -14.63826,-0.242922 -14.693,-14.50221 z M 430.53269,54.373498 V 41.205605 c 0,-5.639289 -1.09994,-8.842973 -7.6941,-8.868938 L 383.96371,32.1836 c -8.25749,-0.03252 -7.77056,7.508432 -7.80576,9.022005 l -0.30611,13.167893 z"
         style="fill:#072928;stroke-width:1.20129"
         id="path4"
         sodipodi:nodetypes="cssssccsssccccsssccsssscc" />
      <path
         d="m 497.13622,34.111545 -45.20444,-0.242942 v -6.989992 h 39.3073 c 14.28931,0 23.76868,9.318504 23.76868,23.577901 v 46.345901 h -7.70728 V 84.380127 l -18.34097,9.123549 c -5.62801,3.156979 -10.16889,3.978539 -15.38726,3.978539 h -5.28495 c -12.50301,0 -22.3908,-8.496942 -22.3908,-21.934899 v -0.40976 c 0,-12.757188 9.47936,-21.664852 23.76867,-21.664852 h 37.75679 l 0.12146,-11.513136 c 0.0364,-3.457079 -5.77785,-7.823144 -10.4072,-7.848023 z m -35.45599,55.847587 h 12.91141 c 3.53109,0 14.3162,-3.849854 15.69951,-5.233143 l 17.24024,-8.495811 -0.12146,-15.916061 -45.71889,0.364411 c -1.51719,0.0121 -7.50484,4.09534 -7.47661,7.605086 l 0.11825,14.686261 c 0.0172,2.137663 2.0377,7.066473 7.35843,7.066473 l -0.37522,0.04088 z"
         style="fill:#072928;stroke-width:1.20129"
         id="path5"
         sodipodi:nodetypes="sccssccccssssscsscscccsssccc" />
      <path
         d="m 209.91188,75.589062 c 0,-7.898345 -5.65084,-16.782582 -13.9157,-19.14155 -1.84397,-0.528206 -3.81769,-0.809787 -5.89591,-0.809787 h -31.74523 c -1.85599,0 -3.20984,-1.244054 -3.20984,-3.203953 V 42.25803 c 0,-1.959903 1.34184,-3.203954 3.20984,-3.203954 h 48.08873 V 26.766348 h -43.59231 c -2.07822,0 -4.05074,0.281583 -5.89591,0.82144 -8.27687,2.358969 -13.9145,9.682375 -13.9145,18.848317 v 2.699772 c 0,7.898463 5.64964,15.609044 13.9145,17.968013 1.84517,0.528085 3.81769,0.809787 5.89591,0.809787 h 31.74522 c 1.85598,0 3.21104,1.244053 3.21104,3.203954 v 9.905333 c 0,1.959899 -1.34304,3.203953 -3.21104,3.203953 h -50.41201 v 12.452058 h 45.9156 c 2.07822,0 4.05194,-0.457811 5.89591,-0.997671 8.26486,-2.358962 13.9157,-9.682249 13.9157,-18.84819 z"
         style="fill:#072928;stroke-width:1.20129"
         id="path8" />
      <path
         d="m 331.75061,34.111914 c -3.83932,0 -5.02499,-0.128898 -9.143,2.145139 l -20.41348,11.616806 v 48.944518 h -7.95611 V 3.3103111 h 7.95611 V 39.597954 l 16.42401,-9.354304 c 5.3157,-3.071211 9.28234,-3.739487 14.31814,-3.739487 h 8.47989 c 11.00259,0 19.22658,8.545596 19.22658,19.904367 v 50.421622 h -7.95611 V 40.664696 c 0,-3.739486 -2.77978,-6.552782 -6.50137,-6.552782 z"
         style="fill:#072928;stroke-width:1.20129"
         id="path9" />
      <path
         d="m 654.13683,34.169851 c -3.83931,0 -5.02499,-0.128898 -9.143,2.145138 l -20.41345,11.616807 v 48.944523 h -7.95614 V 3.3682467 h 7.95614 V 39.655888 l 16.42398,-9.354302 c 5.31571,-3.071211 9.28236,-3.739487 14.31815,-3.739487 h 8.47989 c 11.00256,0 19.22659,8.545598 19.22659,19.904367 v 50.421627 h -7.95613 V 40.722632 c 0,-3.739488 -2.77978,-6.552781 -6.50136,-6.552781 z"
         style="fill:#072928;stroke-width:1.20129"
         id="path9-7" />
      <path
         d="m 530.93749,47.828265 v 48.944524 h -7.95611 V 3.2647168 h 7.95611 V 39.552359 Z"
         style="fill:#072928;stroke-width:1.20129"
         id="path9-7-3"
         sodipodi:nodetypes="ccccccc" />
      <path
         d="m 575.79993,34.502994 h -39.41994 v -7.956116 h 75.31144 v 7.956116 h -29.22608 z"
         style="fill:#072928;stroke-width:1.07809"
         id="path9-7-3-5"
         sodipodi:nodetypes="ccccccc" />
      <path
         d="m 252.65042,34.817994 h -38.62216 v -7.956116 h 73.78731 v 7.956116 h -28.63462 z"
         style="fill:#072928;stroke-width:1.06712"
         id="path9-7-3-5-6"
         sodipodi:nodetypes="ccccccc" />
    </g>
  </g>
</svg>
